<svg xmlns="http://www.w3.org/2000/svg" viewBox="0 0 800 126" width="800" height="126">
  <style>
    .bg { fill: #0d1117; stroke: #30363d; stroke-width: 1; rx: 6; }
    .title { font-family: "JetBrains Mono", Consolas, monospace; font-size: 11px; fill: #8b949e; letter-spacing: 0.05em; }
    .lang-text { font-family: "JetBrains Mono", Consolas, monospace; font-size: 11px; fill: #e6edf3; font-weight: 500; }
    .lang-pct { font-family: "JetBrains Mono", Consolas, monospace; font-size: 10.5px; fill: #8b949e; }
  </style>
  <rect width="800" height="126" class="bg" />
  <text x="24" y="24" class="title">TOP LANGUAGES // REPOSITORIES</text>

  <!-- Progress Bar -->
  <rect x="24" y="46" width="752" height="10" rx="3" fill="#21262d" />
  <g clip-path="url(#bar-clip)">
    <clipPath id="bar-clip">
      <rect x="24" y="46" width="752" height="10" rx="3" />
    </clipPath>
    <rect x="24.0" y="46" width="288.1" height="10" fill="#3572A5" /> <rect x="312.1" y="46" width="133.5" height="10" fill="#e34c26" /> <rect x="445.7" y="46" width="105.4" height="10" fill="#663399" /> <rect x="551.1" y="46" width="91.4" height="10" fill="#f1e05a" /> <rect x="642.5" y="46" width="70.3" height="10" fill="#555555" /> <rect x="712.7" y="46" width="63.3" height="10" fill="#f34b7d" />
  </g>

  <!-- Legend -->
  <g>
    
        <circle cx="24" cy="78" r="4" fill="#3572A5" />
        <text x="34" y="82" class="lang-text">Python</text>
        <text x="234" y="82" text-anchor="end" class="lang-pct">38.3%</text>
         
        <circle cx="280" cy="78" r="4" fill="#e34c26" />
        <text x="290" y="82" class="lang-text">HTML</text>
        <text x="490" y="82" text-anchor="end" class="lang-pct">17.8%</text>
         
        <circle cx="540" cy="78" r="4" fill="#663399" />
        <text x="550" y="82" class="lang-text">CSS</text>
        <text x="750" y="82" text-anchor="end" class="lang-pct">14.0%</text>
         
        <circle cx="24" cy="100" r="4" fill="#f1e05a" />
        <text x="34" y="104" class="lang-text">JavaScript</text>
        <text x="234" y="104" text-anchor="end" class="lang-pct">12.1%</text>
         
        <circle cx="280" cy="100" r="4" fill="#555555" />
        <text x="290" y="104" class="lang-text">C</text>
        <text x="490" y="104" text-anchor="end" class="lang-pct">9.3%</text>
         
        <circle cx="540" cy="100" r="4" fill="#f34b7d" />
        <text x="550" y="104" class="lang-text">C++</text>
        <text x="750" y="104" text-anchor="end" class="lang-pct">8.4%</text>
        
  </g>
</svg>
