<svg xmlns="http://www.w3.org/2000/svg" viewBox="0 0 800 126" width="800" height="126">
  <style>
    .bg { fill: #0d1117; stroke: #30363d; stroke-width: 1; rx: 6; }
    .title { font-family: "JetBrains Mono", Consolas, monospace; font-size: 11px; fill: #8b949e; letter-spacing: 0.05em; }
    .lang-text { font-family: "JetBrains Mono", Consolas, monospace; font-size: 11px; fill: #e6edf3; font-weight: 500; }
    .lang-pct { font-family: "JetBrains Mono", Consolas, monospace; font-size: 10.5px; fill: #8b949e; }
  </style>
  <rect width="800" height="126" class="bg" />
  <text x="24" y="24" class="title">TOP LANGUAGES // REPOSITORIES</text>

  <!-- Progress Bar -->
  <rect x="24" y="46" width="752" height="10" rx="3" fill="#21262d" />
  <g clip-path="url(#bar-clip)">
    <clipPath id="bar-clip">
      <rect x="24" y="46" width="752" height="10" rx="3" />
    </clipPath>
    <rect x="24.0" y="46" width="477.5" height="10" fill="#DA5B0B" /> <rect x="501.5" y="46" width="160.9" height="10" fill="#3572A5" /> <rect x="662.4" y="46" width="105.2" height="10" fill="#f1e05a" /> <rect x="767.5" y="46" width="7.6" height="10" fill="#b07219" />
  </g>

  <!-- Legend -->
  <g>
    
        <circle cx="24" cy="78" r="4" fill="#DA5B0B" />
        <text x="34" y="82" class="lang-text">Jupyter Notebook</text>
        <text x="234" y="82" text-anchor="end" class="lang-pct">63.5%</text>
         
        <circle cx="280" cy="78" r="4" fill="#3572A5" />
        <text x="290" y="82" class="lang-text">Python</text>
        <text x="490" y="82" text-anchor="end" class="lang-pct">21.4%</text>
         
        <circle cx="540" cy="78" r="4" fill="#f1e05a" />
        <text x="550" y="82" class="lang-text">JavaScript</text>
        <text x="750" y="82" text-anchor="end" class="lang-pct">14.0%</text>
         
        <circle cx="24" cy="100" r="4" fill="#b07219" />
        <text x="34" y="104" class="lang-text">Java</text>
        <text x="234" y="104" text-anchor="end" class="lang-pct">1.0%</text>
         
        <circle cx="280" cy="100" r="4" fill="#f34b7d" />
        <text x="290" y="104" class="lang-text">C++</text>
        <text x="490" y="104" text-anchor="end" class="lang-pct">0.1%</text>
         
        <circle cx="540" cy="100" r="4" fill="#3178c6" />
        <text x="550" y="104" class="lang-text">TypeScript</text>
        <text x="750" y="104" text-anchor="end" class="lang-pct">0.0%</text>
        
  </g>
</svg>
